<?xml version="1.0" encoding="UTF-8"?>
<svg version="1.1" xmlns="http://www.w3.org/2000/svg" width="48" height="48">
<path d="M0 0 C0.66 0 1.32 0 2 0 C2 6.6 2 13.2 2 20 C3.98 20 5.96 20 8 20 C8 20.66 8 21.32 8 22 C6.03125 23.5078125 6.03125 23.5078125 3.5 25.125 C2.6646875 25.66382812 1.829375 26.20265625 0.96875 26.7578125 C0.3190625 27.16773437 -0.330625 27.57765625 -1 28 C-1.02886338 23.52084672 -1.04675187 19.04171709 -1.0625 14.5625 C-1.07087891 13.28310547 -1.07925781 12.00371094 -1.08789062 10.68554688 C-1.09111328 9.47060547 -1.09433594 8.25566406 -1.09765625 7.00390625 C-1.10289307 5.87799072 -1.10812988 4.7520752 -1.11352539 3.59204102 C-1 1 -1 1 0 0 Z " fill="#4B22C0" transform="translate(26,8)"/>
<path d="M0 0 C0.66 0 1.32 0 2 0 C2 8.91 2 17.82 2 27 C1.01 27.33 0.02 27.66 -1 28 C-1 21.07 -1 14.14 -1 7 C-2.98 7 -4.96 7 -7 7 C-4.66666667 4.66666667 -2.33333333 2.33333333 0 0 Z " fill="#4A21BD" transform="translate(21,12)"/>
</svg>
