<?xml version="1.0" encoding="UTF-8"?>
<svg version="1.1" xmlns="http://www.w3.org/2000/svg" width="100" height="100">
<path d="M0 0 C22.44 0 44.88 0 68 0 C68 11.22 68 22.44 68 34 C52.655 34.495 52.655 34.495 37 35 C39.2378125 37.22621094 41.475625 39.45242187 43.78125 41.74609375 C45.93630778 43.89336272 48.09050965 46.04148683 50.24462891 48.18969727 C51.74731473 49.68734052 53.25089493 51.18408691 54.75537109 52.67993164 C56.91216551 54.82465709 59.06576951 56.9725406 61.21875 59.12109375 C61.89683716 59.79401962 62.57492432 60.4669455 63.27355957 61.16026306 C63.89420288 61.78083084 64.51484619 62.40139862 65.15429688 63.04077148 C65.70500854 63.58926254 66.25572021 64.1377536 66.82312012 64.7028656 C68 66 68 66 68 67 C56.78 67 45.56 67 34 67 C34 77.89 34 88.78 34 100 C31.69 98.02 29.38 96.04 27 94 C24.54580471 92.03547173 24.54580471 92.03547173 22.09075928 90.07200623 C0.07630201 72.14083702 0.07630201 72.14083702 -1.5737915 60.01734924 C-2.32180975 50.82592334 -1.02388848 42.29083995 0 33 C15.345 32.505 15.345 32.505 31 32 C28.7621875 29.77378906 26.524375 27.54757813 24.21875 25.25390625 C22.06369222 23.10663728 19.90949035 20.95851317 17.75537109 18.81030273 C16.25268527 17.31265948 14.74910507 15.81591309 13.24462891 14.32006836 C11.08783449 12.17534291 8.93423049 10.0274594 6.78125 7.87890625 C6.10316284 7.20598038 5.42507568 6.5330545 4.72644043 5.83973694 C3.79547546 4.90888527 3.79547546 4.90888527 2.84570312 3.95922852 C2.29499146 3.41073746 1.74427979 2.8622464 1.17687988 2.2971344 C0 1 0 1 0 0 Z " fill="#1F92DF" transform="translate(16,0)"/>
<path d="M0 0 C22.44 0 44.88 0 68 0 C68 11.22 68 22.44 68 34 C62.555 34.144375 57.11 34.28875 51.5 34.4375 C48.94668945 34.53309204 48.94668945 34.53309204 46.34179688 34.63061523 C33.98327879 34.91472013 33.98327879 34.91472013 29.75 31.30859375 C28.47530039 29.89427223 27.22917705 28.45405923 26 27 C24.4468944 25.43236479 22.86354477 23.89883167 21.27893066 22.36308289 C18.92341107 20.07314749 16.60682902 17.7455317 14.28808594 15.41845703 C12.47966491 13.60460383 10.66586636 11.7962482 8.8515625 9.98828125 C7.7028036 8.83886279 6.55435427 7.68913483 5.40625 6.5390625 C4.86262817 5.9974649 4.31900635 5.45586731 3.75891113 4.89785767 C0 1.11499614 0 1.11499614 0 0 Z " fill="#7BC1DF" transform="translate(16,0)"/>
<path d="M0 0 C4.55302754 -0.17426207 9.10407758 -0.30062038 13.65966797 -0.38452148 C15.2059107 -0.41952406 16.75192509 -0.46714551 18.29736328 -0.52807617 C32.78603159 -1.08461314 32.78603159 -1.08461314 37.21875 2.69140625 C38.50356774 4.10581708 39.76015122 5.54600907 41 7 C42.55443393 8.56656133 44.13781655 10.10064696 45.72216797 11.63691711 C48.07676634 13.92739678 50.39336718 16.25466521 52.71191406 18.58154297 C54.52033509 20.39539617 56.33413364 22.2037518 58.1484375 24.01171875 C59.2971964 25.16113721 60.44564573 26.31086517 61.59375 27.4609375 C62.13737183 28.0025351 62.68099365 28.54413269 63.24108887 29.10214233 C67 32.88500386 67 32.88500386 67 34 C55.5467119 36.30917407 41.12007459 38.84870547 30.56646729 32.546875 C19.01907981 24.08787463 8.54825508 12.46199871 0 1 C0 0.67 0 0.34 0 0 Z " fill="#23A7FE" transform="translate(17,33)"/>
<path d="M0 0 C13.53 0 27.06 0 41 0 C41 11.22 41 22.44 41 34 C32 34 32 34 30.04467773 32.70483398 C29.61614502 32.07907471 29.1876123 31.45331543 28.74609375 30.80859375 C25.69239267 26.81014013 22.42707907 23.3056899 18.84765625 19.78515625 C17.73109494 18.67645732 16.61455879 17.56773305 15.49804688 16.45898438 C14.35315202 15.32653225 13.2079663 14.19437411 12.0625 13.0625 C9.77971465 10.80622564 7.5002206 8.54669926 5.22265625 6.28515625 C4.4353286 5.51027611 4.4353286 5.51027611 3.63209534 4.71974182 C2.40246007 3.49860529 1.19830753 2.25189311 0 1 C0 0.67 0 0.34 0 0 Z " fill="#8CDBFE" transform="translate(43,0)"/>
<path d="M0 0 C10.89 0 21.78 0 33 0 C33 10.89 33 21.78 33 33 C28.35815247 29.02127355 23.92651734 25.07566392 19.62890625 20.76171875 C19.06171371 20.19548294 18.49452118 19.62924713 17.91014099 19.04585266 C16.72670827 17.86309421 15.54451227 16.67909712 14.36352539 15.49389648 C12.54622764 13.67117911 10.72356975 11.85394191 8.90039062 10.03710938 C7.74707453 8.88313353 6.59406809 7.7288481 5.44140625 6.57421875 C4.89464737 6.0294841 4.34788849 5.48474945 3.78456116 4.92350769 C0 1.11498901 0 1.11498901 0 0 Z " fill="#044DFF" transform="translate(17,67)"/>
</svg>
