<?xml version="1.0" encoding="UTF-8"?>
<svg version="1.1" xmlns="http://www.w3.org/2000/svg" width="100" height="100">
<path d="M0 0 C4.41650132 1.51626428 6.42715701 4.9532234 8.875 8.6875 C9.53145508 9.68148804 9.53145508 9.68148804 10.20117188 10.69555664 C17.71318191 22.45595787 22.36899133 35.43894905 22.3125 49.4375 C22.32861328 50.23220703 22.34472656 51.02691406 22.36132812 51.84570312 C22.36866348 60.86085531 20.04388589 67.75152068 13.83984375 74.3359375 C10.4776025 77.37694551 7.5387536 79 3 79 C3.33 83.29 3.66 87.58 4 92 C2.02 92 0.04 92 -2 92 C-1.67 87.71 -1.34 83.42 -1 79 C-2.65 78.67 -4.3 78.34 -6 78 C-12.37657487 74.60820486 -16.72357144 69.57225741 -19.14453125 62.796875 C-23.16779454 44.9401996 -18.1890345 27.44268298 -9 12 C-2.77099237 2.77099237 -2.77099237 2.77099237 0 0 Z M0 52 C0 60.91 0 69.82 0 79 C0.66 79 1.32 79 2 79 C2 70.09 2 61.18 2 52 C1.34 52 0.68 52 0 52 Z " fill="#679F37" transform="translate(49,4)"/>
</svg>
